<?xml version="1.0" standalone="no"?>
<!DOCTYPE svg PUBLIC "-//W3C//DTD SVG 20010904//EN"
 "http://www.w3.org/TR/2001/REC-SVG-20010904/DTD/svg10.dtd">
<svg version="1.0" xmlns="http://www.w3.org/2000/svg"
 width="399.000000pt" height="126.000000pt" viewBox="0 0 399.000000 126.000000"
 preserveAspectRatio="xMidYMid meet">

<g transform="translate(0.000000,126.000000) scale(0.100000,-0.100000)"
fill="#000000" stroke="none">
<path d="M2015 1170 c-14 -16 -33 -20 -109 -22 -89 -3 -90 -4 -58 -18 17 -8
32 -20 32 -26 0 -13 -25 -89 -40 -119 -5 -11 -23 -57 -40 -102 -17 -46 -35
-83 -38 -83 -4 0 -12 19 -19 43 -6 23 -25 80 -43 127 -44 114 -48 146 -21 153
12 3 21 10 21 16 0 7 -37 11 -110 11 -60 0 -110 -4 -110 -8 0 -5 15 -15 33
-23 32 -14 57 -54 96 -155 9 -22 38 -96 65 -163 70 -171 69 -171 173 89 79
197 104 240 139 240 8 0 17 -6 20 -14 9 -23 35 -28 60 -11 29 19 32 60 5 75
-27 14 -35 13 -56 -10z"/>
<path d="M60 1143 c0 -5 14 -16 30 -25 l30 -17 0 -171 c0 -94 -4 -180 -10
-190 -5 -10 -21 -21 -35 -24 -54 -14 -22 -26 66 -26 67 0 90 3 87 12 -3 7 -15
15 -29 18 -32 8 -40 61 -37 228 l3 127 32 -67 c17 -36 53 -120 79 -185 53
-132 66 -153 90 -138 13 8 136 291 161 368 14 43 18 5 16 -144 -1 -99 -6 -166
-13 -174 -6 -7 -23 -16 -37 -20 -17 -4 -22 -10 -16 -16 13 -13 219 -7 216 6
-1 6 -10 12 -20 14 -41 8 -43 17 -43 203 l0 179 30 17 c16 9 30 20 30 25 0 4
-38 7 -85 7 l-85 0 -15 -32 c-8 -18 -38 -94 -67 -168 -29 -74 -57 -134 -62
-133 -5 1 -36 71 -69 155 -32 84 -64 159 -69 166 -11 13 -178 18 -178 5z"/>
<path d="M772 994 c-100 -51 -118 -179 -36 -258 83 -80 231 -60 277 37 36 75
14 159 -56 211 -37 28 -139 33 -185 10z m120 -25 c26 -14 48 -68 48 -119 0
-106 -73 -165 -130 -106 -47 51 -43 177 7 216 29 23 45 25 75 9z"/>
<path d="M1095 1003 c-11 -2 -30 -6 -43 -9 -26 -5 -20 -24 7 -24 23 0 27 -30
23 -153 -3 -83 -5 -89 -28 -98 -46 -17 -14 -29 77 -29 70 0 89 3 89 14 0 8
-10 16 -22 18 -21 3 -23 9 -26 83 -2 44 2 96 7 116 20 67 98 75 121 13 12 -30
13 -184 2 -200 -4 -6 -15 -13 -24 -17 -43 -16 -14 -27 71 -27 95 0 119 10 74
32 -27 13 -28 16 -33 113 -5 104 -15 133 -52 159 -32 22 -106 20 -146 -4 -40
-24 -38 -24 -45 0 -5 20 -13 22 -52 13z"/>
<path d="M2005 1001 c-26 -4 -40 -11 -40 -21 0 -8 8 -14 18 -14 15 2 17 -10
17 -117 0 -119 0 -120 -26 -129 -46 -18 -14 -30 77 -30 90 0 114 11 64 30
l-25 10 0 140 c0 158 8 145 -85 131z"/>
<path d="M2225 1000 c-35 -14 -73 -64 -86 -112 -40 -147 115 -257 249 -176 53
32 41 50 -17 26 -75 -32 -120 -13 -142 62 -20 66 -14 70 106 70 100 0 105 1
105 21 0 36 -31 89 -61 104 -30 16 -121 19 -154 5z m101 -28 c6 -4 17 -18 24
-31 10 -19 10 -25 -1 -32 -19 -12 -112 -7 -116 7 -2 6 8 23 21 37 25 27 51 34
72 19z"/>
<path d="M2430 1004 c0 -4 11 -17 25 -30 23 -21 25 -30 25 -113 0 -50 5 -101
12 -115 6 -14 30 -35 54 -46 36 -18 49 -19 81 -11 21 6 47 17 58 25 27 21 34
20 28 -4 -5 -19 0 -20 116 -20 123 0 143 7 104 36 -17 12 -16 15 15 46 32 32
33 33 47 13 8 -11 20 -26 26 -34 10 -11 9 -16 -5 -27 -33 -24 -7 -34 85 -34
95 0 112 10 54 34 -19 8 -35 19 -35 23 0 5 -18 30 -40 57 -22 26 -40 55 -40
62 0 20 79 104 107 115 43 16 24 29 -42 29 -60 0 -80 -9 -55 -25 16 -10 11
-38 -11 -64 l-20 -24 -24 23 c-26 24 -33 54 -15 65 27 17 2 25 -74 25 -81 0
-117 -11 -79 -25 15 -5 112 -122 121 -146 2 -5 -18 -34 -44 -64 -43 -51 -51
-56 -83 -53 l-36 3 -5 140 -5 140 -62 3 c-47 2 -63 0 -63 -10 0 -7 10 -18 23
-23 17 -8 23 -20 25 -55 6 -79 -8 -150 -33 -176 -31 -30 -50 -30 -80 1 -24 23
-25 30 -25 145 l0 120 -65 0 c-36 0 -65 -3 -65 -6z"/>
<path d="M3700 623 c-30 -8 -59 -19 -64 -24 -6 -5 -18 -1 -32 12 -18 17 -32
19 -100 17 l-79 -3 0 -265 0 -265 85 0 85 0 6 205 c7 256 13 275 84 295 54 16
85 12 85 -10 0 -7 7 -35 15 -61 39 -125 101 -374 96 -382 -3 -5 -31 -16 -61
-25 -43 -13 -58 -14 -67 -4 -12 13 -22 45 -79 266 -19 74 -37 137 -39 140 -15
14 6 -107 35 -209 43 -151 63 -216 70 -223 10 -11 140 21 159 38 11 11 11 21
-3 67 -8 29 -27 98 -42 153 -14 55 -29 114 -34 130 -22 87 -42 144 -53 153 -8
6 -32 4 -67 -5z m-157 -23 l39 0 -4 -240 c-2 -203 -5 -241 -18 -244 -27 -8
-100 -3 -106 6 -8 13 -6 467 2 480 3 5 16 7 28 4 11 -3 38 -6 59 -6z"/>
<path d="M1472 597 c-12 -13 -22 -26 -22 -30 0 -9 42 -47 51 -47 9 0 49 41 49
50 0 9 -40 50 -49 50 -4 0 -17 -10 -29 -23z"/>
<path d="M2628 609 c-28 -16 -23 -63 7 -77 21 -10 28 -9 45 8 25 25 25 35 0
60 -23 23 -28 24 -52 9z"/>
<path d="M849 581 c-118 -39 -175 -127 -167 -259 3 -54 9 -76 34 -112 64 -96
189 -120 319 -62 68 30 70 32 73 69 4 62 11 80 32 86 11 3 20 10 20 16 0 7
-33 11 -95 11 -97 0 -119 -10 -65 -29 26 -9 30 -15 30 -46 0 -73 -49 -112
-128 -100 -88 13 -130 96 -118 227 8 85 29 127 76 150 74 38 157 9 193 -65 21
-45 37 -48 38 -7 2 93 1 111 -5 117 -3 4 -12 -2 -19 -11 -13 -17 -15 -17 -45
-2 -37 19 -136 29 -173 17z"/>
<path d="M1196 431 c-46 -7 -56 -22 -24 -36 29 -13 38 -62 29 -164 -5 -69 -8
-76 -28 -79 -13 -2 -23 -10 -23 -18 0 -12 17 -14 95 -12 91 3 125 16 73 29
-22 5 -23 9 -23 102 0 79 3 100 18 114 14 15 21 16 37 5 27 -16 50 -15 71 4
31 28 39 8 39 -99 0 -106 -4 -119 -32 -130 -10 -3 -18 -11 -18 -17 0 -6 61
-10 174 -10 171 0 218 9 162 30 -25 9 -26 12 -26 99 0 103 11 135 51 152 24 9
33 9 53 -5 31 -19 38 -56 34 -161 -3 -74 -5 -80 -25 -83 -13 -2 -23 -10 -23
-18 0 -11 19 -14 96 -14 96 0 113 9 57 31 -25 9 -25 10 -21 109 3 93 5 101 30
127 24 23 31 26 55 17 41 -14 53 -48 53 -151 l0 -92 -32 -18 -33 -18 94 -3
c102 -3 131 7 84 30 -28 13 -28 14 -33 126 -5 109 -6 115 -33 138 -22 19 -39
24 -80 24 -29 0 -63 -7 -77 -15 -14 -8 -31 -17 -38 -21 -7 -4 -26 3 -42 15
-38 28 -108 28 -152 1 -42 -25 -51 -25 -43 0 8 24 -5 25 -71 9 -48 -12 -57
-26 -21 -31 19 -3 23 -11 29 -63 4 -33 5 -88 2 -122 l-6 -63 -38 0 c-26 0 -40
5 -44 17 -4 9 -6 73 -5 141 1 68 -1 125 -4 128 -3 3 -29 1 -58 -5 -33 -6 -58
-6 -63 0 -20 19 -82 10 -106 -16 -13 -14 -27 -25 -32 -25 -4 0 -8 11 -8 25 0
27 -2 27 -74 16z"/>
<path d="M2310 429 c-85 -34 -124 -139 -84 -225 29 -62 125 -103 196 -84 120
33 169 147 107 249 -35 58 -147 88 -219 60z m106 -27 c36 -23 57 -124 39 -184
-11 -35 -46 -68 -72 -68 -79 0 -113 171 -48 236 24 24 59 31 81 16z"/>
<path d="M2606 431 c-44 -7 -59 -28 -24 -33 22 -3 23 -6 23 -118 0 -110 -1
-115 -22 -125 -13 -5 -23 -15 -23 -22 0 -10 43 -13 186 -13 142 0 185 3 182
12 -3 7 -15 15 -29 18 -22 5 -24 11 -27 76 -2 39 3 87 10 109 11 34 17 40 38
37 63 -7 73 -6 84 11 15 23 -3 51 -37 55 -28 3 -87 -23 -87 -38 0 -20 -21 -9
-30 16 -9 24 -13 25 -53 19 -57 -10 -68 -22 -38 -44 20 -16 24 -29 28 -92 3
-41 1 -90 -4 -109 -8 -31 -13 -35 -45 -38 -45 -4 -48 5 -48 166 0 137 8 127
-84 113z"/>
<path d="M3085 426 c-42 -18 -83 -69 -91 -112 -21 -112 50 -199 161 -198 53 1
112 25 122 50 9 24 0 24 -44 2 -37 -19 -47 -20 -81 -10 -42 13 -72 59 -72 112
l0 30 104 0 c116 0 122 4 105 63 -18 66 -123 98 -204 63z m107 -33 c10 -9 18
-27 18 -40 0 -23 -3 -24 -57 -21 -31 2 -58 8 -60 14 -6 18 37 64 59 64 12 0
30 -7 40 -17z"/>
</g>
</svg>
