<?xml version="1.0" standalone="no"?>
<!DOCTYPE svg PUBLIC "-//W3C//DTD SVG 20010904//EN"
 "http://www.w3.org/TR/2001/REC-SVG-20010904/DTD/svg10.dtd">
<svg version="1.0" xmlns="http://www.w3.org/2000/svg"
 width="383.000000pt" height="140.000000pt" viewBox="0 0 383.000000 140.000000"
 preserveAspectRatio="xMidYMid meet">

<g transform="translate(0.000000,140.000000) scale(0.100000,-0.100000)"
fill="#000000" stroke="none">
<path d="M705 1358 c-28 -16 -35 -29 -24 -49 21 -40 93 -29 87 13 -4 31 -38
50 -63 36z"/>
<path d="M115 1337 c-3 -7 -4 -134 -3 -282 l3 -270 33 -3 32 -3 0 233 1 233
22 -30 c12 -16 31 -46 42 -67 11 -20 67 -111 125 -202 l105 -166 40 3 40 2 0
280 0 280 -32 3 -33 3 0 -231 c0 -137 -4 -229 -9 -226 -5 4 -28 39 -50 79 -40
71 -210 337 -232 364 -14 17 -78 17 -84 0z"/>
<path d="M1034 1199 c-17 -5 -39 -18 -49 -29 -25 -28 -45 -25 -45 6 0 22 -4
25 -27 22 l-28 -3 0 -205 0 -205 30 0 29 0 1 140 c0 96 4 148 13 166 31 59
123 79 166 36 21 -21 24 -35 29 -153 3 -71 5 -142 4 -159 -2 -27 1 -30 28 -30
l30 0 -2 165 c-1 91 -5 175 -8 187 -12 48 -105 82 -171 62z"/>
<path d="M1443 1203 c-18 -2 -50 -20 -74 -41 l-42 -38 28 -18 c27 -18 27 -17
56 10 40 38 126 47 158 15 25 -25 37 -69 24 -82 -6 -6 -56 -18 -112 -28 -76
-13 -107 -23 -126 -41 -46 -43 -43 -136 6 -172 57 -43 157 -42 203 1 24 23 36
19 36 -11 0 -13 8 -18 30 -18 l30 0 0 158 c0 171 -9 207 -60 243 -26 19 -103
30 -157 22z m157 -238 c0 -42 -29 -100 -59 -118 -40 -24 -102 -22 -135 4 -55
44 -20 96 81 120 100 24 113 24 113 -6z"/>
<path d="M692 993 l3 -208 30 0 30 0 0 205 0 205 -33 3 -32 3 2 -208z"/>
<path d="M3687 705 c-21 -15 -22 -61 -1 -69 25 -10 42 -7 58 10 23 23 20 42
-12 58 -22 11 -31 12 -45 1z"/>
<path d="M725 693 c-53 -14 -110 -64 -143 -128 -24 -45 -27 -61 -26 -150 0
-84 4 -107 23 -145 51 -99 114 -140 216 -140 104 0 173 40 216 123 22 43 18
57 -16 57 -18 0 -32 -11 -49 -39 -36 -56 -82 -81 -148 -81 -45 0 -62 5 -95 29
-160 116 -89 422 98 421 54 0 114 -33 137 -75 21 -37 31 -45 60 -45 15 0 22 6
22 18 0 54 -72 133 -137 151 -39 11 -122 13 -158 4z"/>
<path d="M2138 594 l-3 -107 -31 26 c-44 38 -80 49 -132 41 -126 -19 -189
-193 -120 -332 32 -65 76 -92 149 -92 50 0 63 4 92 30 37 32 47 30 47 -7 0
-19 5 -23 30 -23 l30 0 0 285 0 285 -30 0 -29 0 -3 -106z m-54 -115 c16 -13
32 -41 42 -76 20 -68 8 -140 -31 -188 -22 -27 -31 -30 -81 -30 -52 0 -58 3
-85 34 -65 78 -44 239 35 271 38 16 92 11 120 -11z"/>
<path d="M1233 553 c-18 -2 -50 -20 -74 -41 l-42 -38 28 -18 c27 -18 27 -17
56 10 40 38 126 47 158 15 25 -25 37 -69 24 -82 -6 -6 -50 -17 -99 -25 -102
-18 -143 -38 -163 -79 -20 -41 -4 -112 30 -137 57 -43 157 -42 203 1 24 23 36
19 36 -11 0 -13 8 -18 30 -18 l30 0 0 158 c0 171 -9 207 -60 243 -26 19 -103
30 -157 22z m157 -238 c0 -42 -29 -100 -59 -118 -40 -24 -102 -22 -135 4 -55
44 -20 96 81 120 100 24 113 24 113 -6z"/>
<path d="M1714 553 c-12 -2 -32 -15 -45 -29 -28 -30 -37 -30 -41 -1 -2 16 -11
23 -31 25 l-27 3 2 -208 3 -208 28 -3 27 -3 0 144 c0 133 2 147 23 178 19 28
31 35 75 43 49 8 53 11 50 35 -3 27 -20 33 -64 24z"/>
<path d="M2907 553 c-16 -2 -48 -23 -72 -46 -53 -52 -70 -105 -61 -197 10
-116 78 -180 189 -180 69 0 124 26 151 71 33 55 -20 70 -64 18 -21 -26 -35
-32 -75 -36 -41 -4 -55 -1 -79 18 -35 28 -66 92 -66 139 0 47 31 111 66 139
42 33 113 25 158 -18 50 -49 90 -36 59 19 -32 56 -121 87 -206 73z"/>
<path d="M3375 555 c-5 -2 -22 -6 -36 -9 -34 -7 -87 -59 -105 -102 -16 -39
-19 -161 -3 -201 13 -34 55 -80 91 -99 36 -19 132 -18 174 2 37 18 74 62 74
88 0 27 -44 19 -75 -14 -31 -33 -77 -46 -124 -35 -91 20 -124 190 -53 273 46
56 123 57 180 2 35 -33 59 -38 68 -15 8 19 -30 72 -64 89 -28 14 -109 28 -127
21z"/>
<path d="M2323 535 c-3 -10 -3 -84 0 -166 5 -116 10 -156 24 -179 39 -67 150
-80 215 -25 l33 28 5 -29 c4 -23 10 -29 30 -29 l25 0 -1 205 -1 205 -29 0 -29
0 0 -145 c0 -134 -2 -147 -22 -176 -42 -59 -136 -54 -171 10 -13 24 -17 62
-18 171 l-2 140 -26 3 c-17 2 -28 -2 -33 -13z"/>
<path d="M3674 537 c-3 -8 -3 -101 -1 -208 l5 -194 27 0 28 0 -1 205 -1 205
-25 3 c-16 2 -28 -2 -32 -11z"/>
</g>
</svg>
